<svg width="1440" height="1024" viewBox="0 0 1440 1024" fill="none" xmlns="http://www.w3.org/2000/svg">
  <rect width="1440" height="1024" fill="#2A5B66"/>
  <g clip-path="url(#clip0)">
    <path fill-rule="evenodd" clip-rule="evenodd" d="M797.971 442.229C799.113 443.486 799.913 445.2 799.799 447.029V540.171C799.799 542.114 799.113 544.057 797.743 545.543C797.065 546.248 796.248 546.806 795.343 547.179C794.439 547.553 793.467 547.735 792.489 547.714C791.347 547.714 790.205 547.486 789.063 547.143C788.14 546.824 787.314 546.273 786.665 545.543L726.362 467.029V540.857C726.395 541.761 726.24 542.662 725.906 543.503C725.571 544.344 725.066 545.105 724.421 545.74C723.777 546.374 723.007 546.867 722.161 547.187C721.316 547.508 720.413 547.648 719.51 547.6C717.797 547.6 716.084 546.914 714.942 545.657C713.699 544.415 713.001 542.729 713 540.971V447.6C713 445.657 713.799 443.714 715.284 442.343C715.924 441.689 716.688 441.171 717.532 440.818C718.375 440.464 719.281 440.283 720.195 440.286C721.337 440.286 722.594 440.514 723.621 440.971C724.763 441.314 725.677 442.114 726.362 442.914L786.322 521.657V447.029C786.289 446.124 786.444 445.223 786.779 444.383C787.113 443.542 787.618 442.78 788.263 442.146C788.908 441.512 789.677 441.019 790.523 440.698C791.369 440.378 792.272 440.238 793.174 440.286C794.888 440.286 796.601 440.857 797.743 442.229H797.971ZM922.116 442.457C923.372 443.943 924.172 445.886 924.058 447.714V506.686C924.172 514.229 922.344 521.771 918.69 528.4C915.264 534.8 910.124 540.057 903.843 543.6C897.447 547.371 890.138 549.314 882.6 549.2C875.176 549.2 867.753 547.371 861.129 543.714C854.879 540.158 849.74 534.936 846.281 528.629C842.639 521.938 840.789 514.418 840.914 506.8V447.829C840.914 445.886 841.599 443.943 843.198 442.571C844.624 441.196 846.528 440.427 848.509 440.427C850.489 440.427 852.393 441.196 853.819 442.571C855.19 443.943 855.989 445.771 855.989 447.829V506.571C855.875 511.6 857.131 516.514 859.644 520.971C861.956 525.025 865.296 528.396 869.327 530.744C873.357 533.091 877.936 534.333 882.6 534.343C886.238 534.358 889.843 533.649 893.204 532.256C896.565 530.863 899.616 528.814 902.178 526.229C904.74 523.644 906.762 520.575 908.126 517.2C909.49 513.825 910.17 510.212 910.124 506.571V447.829C910.124 445.886 910.695 443.943 911.951 442.457C913.322 440.971 915.149 440.171 917.091 440.286C919.032 440.286 920.86 441.086 922.116 442.457ZM1040.78 535.943C1041.65 537.218 1042.09 538.741 1042.04 540.286C1042.15 542.229 1041.35 544.171 1039.87 545.543C1038.53 546.78 1036.78 547.473 1034.95 547.486C1032.56 547.6 1030.27 546.343 1028.9 544.4L999.207 504.629L969.969 544.4C969.324 545.386 968.442 546.194 967.405 546.753C966.368 547.312 965.208 547.603 964.031 547.6C962.203 547.6 960.604 546.914 959.348 545.657C958.206 544.514 957.406 542.914 957.406 541.314C957.406 539.486 958.092 537.657 959.234 536.286L990.755 493.429L959.12 450.914C957.991 449.536 957.423 447.782 957.528 446.003C957.634 444.223 958.406 442.549 959.691 441.314C960.767 440.21 962.169 439.481 963.69 439.234C965.212 438.987 966.772 439.235 968.142 439.943C969.241 440.449 970.187 441.238 970.883 442.229L1000.35 481.771L1029.36 442.571C1030.61 440.629 1032.78 439.371 1035.18 439.143C1037.01 439.143 1038.84 440.057 1040.09 441.429C1041.35 442.571 1042.15 444.286 1042.26 446C1042.26 447.714 1041.69 449.2 1040.66 450.571L1008.69 493.086L1040.66 535.943H1040.78ZM1150.99 442.229C1152.36 443.486 1153.27 445.429 1153.16 447.371C1153.16 449.314 1152.36 451.143 1150.88 452.4C1149.51 453.657 1147.56 454.343 1145.62 454.229H1118.44V540.4C1118.44 542.343 1117.76 544.171 1116.27 545.543C1114.73 546.909 1112.74 547.663 1110.67 547.663C1108.61 547.663 1106.62 546.909 1105.08 545.543C1104.37 544.887 1103.8 544.093 1103.4 543.208C1103.01 542.324 1102.8 541.368 1102.79 540.4V454.229H1075.61C1073.67 454.229 1071.84 453.657 1070.36 452.286C1069.65 451.633 1069.09 450.837 1068.72 449.95C1068.34 449.062 1068.16 448.105 1068.19 447.143C1068.19 445.314 1068.87 443.486 1070.24 442.229C1071.73 440.857 1073.67 440.171 1075.5 440.286H1145.62C1147.56 440.286 1149.51 440.857 1150.99 442.229Z" fill="white"/>
    <path fill-rule="evenodd" clip-rule="evenodd" d="M1184.34 544.971C1179.43 542.229 1175.2 538.114 1172.35 533.2C1171.55 532.057 1171.09 530.571 1170.98 529.086C1170.98 527.143 1171.78 525.314 1173.26 524.057C1174.52 522.686 1176.23 522 1178.06 521.771C1180.8 522.114 1183.31 523.486 1184.91 525.657C1188.34 531.371 1194.5 534.8 1201.01 534.571C1203.64 534.648 1206.26 534.196 1208.71 533.242C1211.16 532.289 1213.39 530.853 1215.27 529.02C1217.16 527.187 1218.66 524.994 1219.68 522.571C1220.7 520.148 1221.23 517.545 1221.23 514.914V447.714C1221.21 446.725 1221.4 445.743 1221.8 444.835C1222.19 443.928 1222.78 443.117 1223.51 442.457C1225 441.086 1226.94 440.286 1228.88 440.286C1230.94 440.286 1232.88 440.971 1234.36 442.343C1235.04 443.035 1235.57 443.858 1235.93 444.761C1236.28 445.665 1236.45 446.63 1236.42 447.6V515.029C1236.54 521.074 1235.01 527.039 1231.99 532.276C1228.97 537.514 1224.58 541.825 1219.29 544.743C1213.99 547.761 1208 549.367 1201.9 549.407C1195.8 549.447 1189.79 547.92 1184.45 544.971H1184.34ZM1289.98 545.429C1283.93 543.143 1278.33 539.714 1273.54 535.143C1272.59 534.41 1271.81 533.478 1271.25 532.412C1270.7 531.346 1270.39 530.171 1270.34 528.971C1270.35 528.021 1270.56 527.083 1270.95 526.217C1271.35 525.351 1271.91 524.577 1272.62 523.943C1273.25 523.269 1274.01 522.729 1274.86 522.356C1275.7 521.983 1276.61 521.784 1277.53 521.771C1279.25 521.771 1280.73 522.343 1281.99 523.486C1285.64 526.914 1289.98 529.771 1294.55 531.829C1299.35 533.657 1304.37 534.571 1309.4 534.571C1315.11 534.686 1320.82 533.2 1325.73 530C1329.73 527.714 1332.35 523.486 1332.35 518.8C1332.47 513.886 1329.96 509.2 1325.73 506.457C1319.59 502.888 1312.86 500.449 1305.86 499.257C1295.35 496.971 1287.24 493.543 1281.53 488.629C1275.82 483.714 1273.08 476.857 1273.08 468.171C1272.96 462.457 1274.56 456.857 1277.88 452.171C1281.19 447.6 1285.64 443.943 1290.9 441.657C1302.74 436.929 1315.91 436.726 1327.9 441.086C1332.99 442.783 1337.67 445.549 1341.6 449.2C1343.66 450.8 1345.03 453.2 1345.03 455.714C1345.03 456.629 1344.85 457.535 1344.5 458.379C1344.15 459.223 1343.63 459.988 1342.97 460.629C1342.36 461.355 1341.58 461.936 1340.72 462.331C1339.85 462.726 1338.9 462.925 1337.95 462.914C1336.81 462.914 1335.44 462.457 1334.52 461.657C1327.81 455.63 1319.1 452.294 1310.08 452.286C1304.37 451.943 1298.66 453.429 1293.75 456.4C1291.89 457.642 1290.36 459.325 1289.31 461.298C1288.25 463.272 1287.7 465.476 1287.7 467.714C1287.7 469.953 1288.25 472.157 1289.31 474.13C1290.36 476.104 1291.89 477.787 1293.75 479.029C1299.33 482.322 1305.44 484.641 1311.8 485.886C1318.53 487.143 1325.04 489.314 1331.33 491.943C1336.12 494.114 1340.23 497.429 1343.09 501.771C1346.06 506.8 1347.43 512.4 1347.2 518.229C1347.31 523.943 1345.6 529.429 1342.29 534C1338.86 538.8 1334.07 542.457 1328.58 544.743C1316.16 549.496 1302.46 549.739 1289.87 545.429H1289.98Z" fill="#00C48D"/>
  </g>
  <path d="M419.428 391.141L398.382 427.571L326.404 302.948L105.444 685.469H255.049C255.049 705.589 271.366 721.899 291.493 721.899H105.444C92.4253 721.899 80.3963 714.952 73.8878 703.681C67.3794 692.41 67.38 678.524 73.8896 667.254L294.849 284.733C301.359 273.461 313.391 266.517 326.412 266.517C339.432 266.517 351.464 273.461 357.974 284.733L419.428 391.141Z" fill="#00C58E"/>
  <path d="M578.934 667.254L440.475 427.571L419.429 391.141L398.382 427.571L259.939 667.254C253.429 678.524 253.428 692.41 259.937 703.681C266.445 714.952 278.474 721.899 291.493 721.899H547.333C560.355 721.899 572.389 714.96 578.901 703.688C585.414 692.416 585.414 678.527 578.903 667.254H578.934ZM291.493 685.469L419.429 464.002L547.333 685.469H291.493L291.493 685.469Z" fill="white"/>
  <path d="M677.926 703.684C671.417 714.954 659.389 721.9 646.371 721.9H547.333C567.461 721.9 583.778 705.589 583.778 685.469H646.295L468.902 378.345L440.475 427.571L419.428 391.141L437.347 360.129C443.857 348.857 455.889 341.913 468.909 341.913C481.93 341.913 493.962 348.857 500.472 360.129L677.926 667.254C684.436 678.525 684.436 692.413 677.926 703.684Z" fill="#108775"/>
  <path d="M43.9473 973.493C41.5352 972.8 39.7773 971.95 38.6738 970.944C37.5801 969.929 37.0332 968.679 37.0332 967.194C37.0332 965.515 37.7021 964.128 39.04 963.034C40.3877 961.931 42.1357 961.379 44.2842 961.379C45.749 961.379 47.0527 961.662 48.1953 962.229C49.3477 962.795 50.2363 963.576 50.8613 964.572C51.4961 965.568 51.8135 966.657 51.8135 967.839H48.9863C48.9863 966.55 48.5762 965.539 47.7559 964.807C46.9355 964.064 45.7783 963.693 44.2842 963.693C42.8975 963.693 41.8135 964.001 41.0322 964.616C40.2607 965.222 39.875 966.066 39.875 967.15C39.875 968.02 40.2412 968.757 40.9736 969.362C41.7158 969.958 42.9707 970.505 44.7383 971.003C46.5156 971.501 47.9023 972.053 48.8984 972.658C49.9043 973.254 50.6465 973.952 51.125 974.753C51.6133 975.554 51.8574 976.496 51.8574 977.58C51.8574 979.309 51.1836 980.695 49.8359 981.74C48.4883 982.775 46.6865 983.293 44.4307 983.293C42.9658 983.293 41.5986 983.015 40.3291 982.458C39.0596 981.892 38.0781 981.12 37.3848 980.144C36.7012 979.167 36.3594 978.059 36.3594 976.818H39.1865C39.1865 978.107 39.6602 979.128 40.6074 979.88C41.5645 980.622 42.8389 980.993 44.4307 980.993C45.915 980.993 47.0527 980.69 47.8438 980.085C48.6348 979.479 49.0303 978.654 49.0303 977.609C49.0303 976.564 48.6641 975.759 47.9316 975.192C47.1992 974.616 45.8711 974.05 43.9473 973.493ZM54.333 974.929C54.333 973.376 54.6357 971.979 55.2412 970.739C55.8564 969.499 56.7061 968.542 57.79 967.868C58.8838 967.194 60.1289 966.857 61.5254 966.857C63.6836 966.857 65.4268 967.604 66.7549 969.099C68.0928 970.593 68.7617 972.58 68.7617 975.061V975.251C68.7617 976.794 68.4639 978.181 67.8682 979.411C67.2822 980.632 66.4375 981.584 65.334 982.268C64.2402 982.951 62.9805 983.293 61.5547 983.293C59.4062 983.293 57.6631 982.546 56.3252 981.052C54.9971 979.558 54.333 977.58 54.333 975.119V974.929ZM57.0576 975.251C57.0576 977.009 57.4629 978.42 58.2734 979.484C59.0938 980.549 60.1875 981.081 61.5547 981.081C62.9316 981.081 64.0254 980.544 64.8359 979.47C65.6465 978.386 66.0518 976.872 66.0518 974.929C66.0518 973.19 65.6367 971.784 64.8066 970.71C63.9863 969.626 62.8926 969.084 61.5254 969.084C60.1875 969.084 59.1084 969.616 58.2881 970.681C57.4678 971.745 57.0576 973.269 57.0576 975.251ZM71.4424 974.929C71.4424 973.376 71.7451 971.979 72.3506 970.739C72.9658 969.499 73.8154 968.542 74.8994 967.868C75.9932 967.194 77.2383 966.857 78.6348 966.857C80.793 966.857 82.5361 967.604 83.8643 969.099C85.2021 970.593 85.8711 972.58 85.8711 975.061V975.251C85.8711 976.794 85.5732 978.181 84.9775 979.411C84.3916 980.632 83.5469 981.584 82.4434 982.268C81.3496 982.951 80.0898 983.293 78.6641 983.293C76.5156 983.293 74.7725 982.546 73.4346 981.052C72.1064 979.558 71.4424 977.58 71.4424 975.119V974.929ZM74.167 975.251C74.167 977.009 74.5723 978.42 75.3828 979.484C76.2031 980.549 77.2969 981.081 78.6641 981.081C80.041 981.081 81.1348 980.544 81.9453 979.47C82.7559 978.386 83.1611 976.872 83.1611 974.929C83.1611 973.19 82.7461 971.784 81.916 970.71C81.0957 969.626 80.002 969.084 78.6348 969.084C77.2969 969.084 76.2178 969.616 75.3975 970.681C74.5771 971.745 74.167 973.269 74.167 975.251ZM91.8184 967.15L91.8916 968.908C93.0537 967.541 94.6211 966.857 96.5938 966.857C98.8105 966.857 100.319 967.707 101.12 969.406C101.647 968.645 102.331 968.029 103.171 967.561C104.021 967.092 105.021 966.857 106.174 966.857C109.65 966.857 111.418 968.698 111.477 972.38V983H108.767V972.541C108.767 971.408 108.508 970.563 107.99 970.007C107.473 969.44 106.604 969.157 105.383 969.157C104.377 969.157 103.542 969.46 102.878 970.065C102.214 970.661 101.828 971.467 101.721 972.482V983H98.9961V972.614C98.9961 970.31 97.8682 969.157 95.6123 969.157C93.835 969.157 92.6191 969.914 91.9648 971.428V983H89.2549V967.15H91.8184ZM125.363 983C125.207 982.688 125.08 982.131 124.982 981.33C123.723 982.639 122.219 983.293 120.471 983.293C118.908 983.293 117.624 982.854 116.618 981.975C115.622 981.086 115.124 979.963 115.124 978.605C115.124 976.955 115.749 975.676 116.999 974.768C118.259 973.85 120.026 973.391 122.302 973.391H124.938V972.146C124.938 971.198 124.655 970.446 124.089 969.89C123.522 969.323 122.688 969.04 121.584 969.04C120.617 969.04 119.807 969.284 119.152 969.772C118.498 970.261 118.171 970.852 118.171 971.545H115.446C115.446 970.754 115.725 969.992 116.281 969.26C116.848 968.518 117.609 967.932 118.566 967.502C119.533 967.072 120.593 966.857 121.745 966.857C123.571 966.857 125.002 967.316 126.037 968.234C127.072 969.143 127.609 970.397 127.648 971.999V979.294C127.648 980.749 127.834 981.906 128.205 982.766V983H125.363ZM120.866 980.935C121.716 980.935 122.521 980.715 123.283 980.275C124.045 979.836 124.597 979.265 124.938 978.562V975.31H122.814C119.494 975.31 117.834 976.281 117.834 978.225C117.834 979.074 118.117 979.738 118.684 980.217C119.25 980.695 119.978 980.935 120.866 980.935ZM134.46 967.15L134.548 969.143C135.759 967.619 137.341 966.857 139.294 966.857C142.644 966.857 144.333 968.747 144.362 972.526V983H141.652V972.512C141.643 971.369 141.379 970.524 140.861 969.978C140.354 969.431 139.558 969.157 138.474 969.157C137.595 969.157 136.823 969.392 136.159 969.86C135.495 970.329 134.978 970.944 134.606 971.706V983H131.896V967.15H134.46ZM172.004 976.232C171.74 978.488 170.905 980.231 169.499 981.462C168.103 982.683 166.242 983.293 163.918 983.293C161.398 983.293 159.377 982.39 157.854 980.583C156.34 978.776 155.583 976.359 155.583 973.332V971.281C155.583 969.299 155.935 967.556 156.638 966.052C157.351 964.548 158.356 963.396 159.655 962.595C160.954 961.784 162.458 961.379 164.167 961.379C166.433 961.379 168.249 962.014 169.616 963.283C170.983 964.543 171.779 966.291 172.004 968.527H169.177C168.933 966.828 168.4 965.598 167.58 964.836C166.77 964.074 165.632 963.693 164.167 963.693C162.37 963.693 160.959 964.357 159.934 965.686C158.918 967.014 158.41 968.903 158.41 971.354V973.42C158.41 975.734 158.894 977.575 159.86 978.942C160.827 980.31 162.18 980.993 163.918 980.993C165.48 980.993 166.677 980.642 167.507 979.938C168.347 979.226 168.903 977.99 169.177 976.232H172.004ZM178.142 969.069C179.343 967.595 180.905 966.857 182.829 966.857C186.179 966.857 187.868 968.747 187.897 972.526V983H185.188V972.512C185.178 971.369 184.914 970.524 184.396 969.978C183.889 969.431 183.093 969.157 182.009 969.157C181.13 969.157 180.358 969.392 179.694 969.86C179.03 970.329 178.513 970.944 178.142 971.706V983H175.432V960.5H178.142V969.069ZM198.532 983.293C196.384 983.293 194.636 982.59 193.288 981.184C191.94 979.768 191.267 977.878 191.267 975.515V975.017C191.267 973.444 191.564 972.043 192.16 970.812C192.766 969.572 193.605 968.605 194.68 967.912C195.764 967.209 196.936 966.857 198.195 966.857C200.256 966.857 201.857 967.536 203 968.894C204.143 970.251 204.714 972.194 204.714 974.724V975.852H193.977C194.016 977.414 194.47 978.679 195.339 979.646C196.218 980.603 197.331 981.081 198.679 981.081C199.636 981.081 200.446 980.886 201.11 980.495C201.774 980.104 202.355 979.587 202.854 978.942L204.509 980.231C203.181 982.272 201.188 983.293 198.532 983.293ZM198.195 969.084C197.102 969.084 196.184 969.484 195.441 970.285C194.699 971.076 194.24 972.189 194.064 973.625H202.004V973.42C201.926 972.043 201.555 970.979 200.891 970.227C200.227 969.465 199.328 969.084 198.195 969.084Z" fill="white" fill-opacity="0.3"/>
  <defs>
    <clipPath id="clip0">
      <rect width="635" height="112" fill="white" transform="translate(713 438)"/>
    </clipPath>
  </defs>
</svg>
