<svg width="1440" height="1024" viewBox="0 0 1440 1024" fill="none" xmlns="http://www.w3.org/2000/svg">
  <rect width="1440" height="1024" fill="#2A5B66"/>
  <g clip-path="url(#clip0)">
    <path fill-rule="evenodd" clip-rule="evenodd" d="M797.971 460.229C799.113 461.486 799.913 463.2 799.799 465.029V558.171C799.799 560.114 799.113 562.057 797.743 563.543C797.065 564.248 796.248 564.805 795.343 565.179C794.439 565.553 793.467 565.735 792.489 565.714C791.347 565.714 790.205 565.486 789.063 565.143C788.14 564.823 787.314 564.273 786.665 563.543L726.362 485.029V558.857C726.395 559.761 726.24 560.662 725.906 561.503C725.571 562.344 725.066 563.105 724.421 563.74C723.777 564.374 723.007 564.867 722.161 565.187C721.316 565.508 720.413 565.648 719.51 565.6C717.797 565.6 716.084 564.914 714.942 563.657C713.699 562.415 713.001 560.729 713 558.971V465.6C713 463.657 713.799 461.714 715.284 460.343C715.924 459.689 716.688 459.171 717.532 458.817C718.375 458.464 719.281 458.283 720.195 458.286C721.337 458.286 722.594 458.514 723.621 458.971C724.763 459.314 725.677 460.114 726.362 460.914L786.322 539.657V465.029C786.289 464.124 786.444 463.223 786.779 462.383C787.113 461.542 787.618 460.78 788.263 460.146C788.908 459.512 789.677 459.018 790.523 458.698C791.369 458.378 792.272 458.237 793.174 458.286C794.888 458.286 796.601 458.857 797.743 460.229H797.971ZM922.116 460.457C923.372 461.943 924.172 463.886 924.058 465.714V524.686C924.172 532.229 922.344 539.771 918.69 546.4C915.264 552.8 910.124 558.057 903.843 561.6C897.447 565.371 890.138 567.314 882.6 567.2C875.176 567.2 867.753 565.371 861.129 561.714C854.879 558.158 849.74 552.935 846.281 546.629C842.638 539.938 840.789 532.418 840.914 524.8V465.829C840.914 463.886 841.599 461.943 843.198 460.571C844.624 459.196 846.528 458.427 848.509 458.427C850.489 458.427 852.393 459.196 853.819 460.571C855.19 461.943 855.989 463.771 855.989 465.829V524.571C855.875 529.6 857.131 534.514 859.644 538.971C861.956 543.025 865.296 546.396 869.327 548.743C873.357 551.091 877.936 552.333 882.6 552.343C886.238 552.358 889.843 551.649 893.204 550.256C896.565 548.863 899.616 546.814 902.178 544.229C904.74 541.644 906.762 538.575 908.126 535.2C909.49 531.825 910.17 528.212 910.124 524.571V465.829C910.124 463.886 910.695 461.943 911.951 460.457C913.322 458.971 915.149 458.171 917.091 458.286C919.032 458.286 920.86 459.086 922.116 460.457V460.457ZM1040.78 553.943C1041.65 555.218 1042.09 556.741 1042.04 558.286C1042.15 560.229 1041.35 562.171 1039.87 563.543C1038.53 564.78 1036.78 565.473 1034.95 565.486C1032.56 565.6 1030.27 564.343 1028.9 562.4L999.207 522.629L969.969 562.4C969.324 563.385 968.442 564.194 967.405 564.753C966.368 565.312 965.208 565.603 964.031 565.6C962.203 565.6 960.604 564.914 959.348 563.657C958.206 562.514 957.406 560.914 957.406 559.314C957.406 557.486 958.092 555.657 959.234 554.286L990.755 511.429L959.12 468.914C957.991 467.536 957.423 465.782 957.528 464.002C957.634 462.223 958.406 460.549 959.691 459.314C960.767 458.21 962.169 457.481 963.69 457.234C965.212 456.987 966.772 457.235 968.142 457.943C969.241 458.449 970.187 459.238 970.883 460.229L1000.35 499.771L1029.36 460.571C1030.61 458.629 1032.78 457.371 1035.18 457.143C1037.01 457.143 1038.84 458.057 1040.09 459.429C1041.35 460.571 1042.15 462.286 1042.26 464C1042.26 465.714 1041.69 467.2 1040.66 468.571L1008.69 511.086L1040.66 553.943H1040.78ZM1150.99 460.229C1152.36 461.486 1153.27 463.429 1153.16 465.371C1153.16 467.314 1152.36 469.143 1150.88 470.4C1149.51 471.657 1147.56 472.343 1145.62 472.229H1118.44V558.4C1118.44 560.343 1117.76 562.171 1116.27 563.543C1114.73 564.909 1112.74 565.663 1110.67 565.663C1108.61 565.663 1106.62 564.909 1105.08 563.543C1104.37 562.887 1103.8 562.093 1103.4 561.208C1103.01 560.324 1102.8 559.368 1102.79 558.4V472.229H1075.61C1073.67 472.229 1071.84 471.657 1070.36 470.286C1069.65 469.633 1069.09 468.837 1068.72 467.95C1068.34 467.062 1068.16 466.105 1068.19 465.143C1068.19 463.314 1068.87 461.486 1070.24 460.229C1071.73 458.857 1073.67 458.171 1075.5 458.286H1145.62C1147.56 458.286 1149.51 458.857 1150.99 460.229Z" fill="white"/>
    <path fill-rule="evenodd" clip-rule="evenodd" d="M1184.34 562.971C1179.43 560.229 1175.2 556.114 1172.35 551.2C1171.55 550.057 1171.09 548.571 1170.98 547.086C1170.98 545.143 1171.78 543.314 1173.26 542.057C1174.52 540.686 1176.23 540 1178.06 539.771C1180.8 540.114 1183.31 541.486 1184.91 543.657C1188.34 549.371 1194.5 552.8 1201.01 552.571C1203.64 552.648 1206.26 552.196 1208.71 551.242C1211.16 550.289 1213.39 548.853 1215.27 547.02C1217.16 545.187 1218.66 542.994 1219.68 540.571C1220.7 538.148 1221.23 535.544 1221.23 532.914V465.714C1221.21 464.725 1221.4 463.743 1221.8 462.835C1222.19 461.928 1222.78 461.117 1223.51 460.457C1225 459.086 1226.94 458.286 1228.88 458.286C1230.94 458.286 1232.88 458.971 1234.36 460.343C1235.04 461.035 1235.57 461.858 1235.93 462.761C1236.28 463.665 1236.45 464.63 1236.42 465.6V533.029C1236.54 539.074 1235.01 545.039 1231.99 550.276C1228.97 555.514 1224.58 559.825 1219.29 562.743C1213.99 565.761 1208 567.367 1201.9 567.407C1195.8 567.447 1189.79 565.92 1184.45 562.971H1184.34ZM1289.98 563.429C1283.93 561.143 1278.33 557.714 1273.54 553.143C1272.59 552.41 1271.81 551.478 1271.25 550.412C1270.7 549.345 1270.39 548.171 1270.34 546.971C1270.35 546.021 1270.56 545.082 1270.95 544.217C1271.35 543.351 1271.91 542.577 1272.62 541.943C1273.25 541.269 1274.01 540.729 1274.86 540.356C1275.7 539.983 1276.61 539.784 1277.53 539.771C1279.25 539.771 1280.73 540.343 1281.99 541.486C1285.64 544.914 1289.98 547.771 1294.55 549.829C1299.35 551.657 1304.37 552.571 1309.4 552.571C1315.11 552.686 1320.82 551.2 1325.73 548C1329.73 545.714 1332.35 541.486 1332.35 536.8C1332.47 531.886 1329.96 527.2 1325.73 524.457C1319.59 520.887 1312.86 518.449 1305.86 517.257C1295.35 514.971 1287.24 511.543 1281.53 506.629C1275.82 501.714 1273.08 494.857 1273.08 486.171C1272.96 480.457 1274.56 474.857 1277.88 470.171C1281.19 465.6 1285.64 461.943 1290.9 459.657C1302.74 454.929 1315.91 454.726 1327.9 459.086C1332.99 460.783 1337.67 463.549 1341.6 467.2C1343.66 468.8 1345.03 471.2 1345.03 473.714C1345.03 474.629 1344.85 475.535 1344.5 476.379C1344.15 477.223 1343.63 477.988 1342.97 478.629C1342.36 479.355 1341.58 479.936 1340.72 480.331C1339.85 480.726 1338.9 480.925 1337.95 480.914C1336.81 480.914 1335.44 480.457 1334.52 479.657C1327.81 473.63 1319.1 470.294 1310.08 470.286C1304.37 469.943 1298.66 471.429 1293.75 474.4C1291.89 475.642 1290.36 477.325 1289.31 479.298C1288.25 481.272 1287.7 483.476 1287.7 485.714C1287.7 487.953 1288.25 490.157 1289.31 492.13C1290.36 494.104 1291.89 495.786 1293.75 497.029C1299.33 500.322 1305.44 502.641 1311.8 503.886C1318.53 505.143 1325.04 507.314 1331.33 509.943C1336.12 512.114 1340.23 515.429 1343.09 519.771C1346.06 524.8 1347.43 530.4 1347.2 536.229C1347.31 541.943 1345.6 547.429 1342.29 552C1338.86 556.8 1334.07 560.457 1328.58 562.743C1316.16 567.496 1302.46 567.739 1289.87 563.429H1289.98Z" fill="#00C48D"/>
  </g>
  <path d="M419.428 391.141L398.382 427.571L326.404 302.948L105.444 685.469H255.049C255.049 705.589 271.366 721.899 291.493 721.899H105.444C92.4253 721.899 80.3963 714.952 73.8878 703.681C67.3794 692.41 67.38 678.524 73.8896 667.254L294.849 284.733C301.359 273.461 313.391 266.517 326.412 266.517C339.432 266.517 351.464 273.461 357.974 284.733L419.428 391.141V391.141Z" fill="#00C58E"/>
  <path d="M578.934 667.254L440.475 427.571L419.429 391.141L398.382 427.571L259.939 667.254C253.429 678.524 253.428 692.41 259.937 703.681C266.445 714.952 278.474 721.899 291.493 721.899H547.333C560.355 721.899 572.389 714.96 578.901 703.688C585.414 692.416 585.414 678.527 578.903 667.254H578.934ZM291.493 685.469L419.429 464.002L547.333 685.469H291.493L291.493 685.469Z" fill="white"/>
  <path d="M677.926 703.684C671.417 714.954 659.389 721.9 646.371 721.9H547.333C567.461 721.9 583.778 705.589 583.778 685.469H646.295L468.902 378.345L440.475 427.571L419.428 391.141L437.347 360.129C443.857 348.857 455.889 341.913 468.909 341.913C481.93 341.913 493.962 348.857 500.472 360.129L677.926 667.254C684.436 678.525 684.436 692.413 677.926 703.684V703.684Z" fill="#108775"/>
  <defs>
    <clipPath id="clip0">
      <rect width="635" height="112" fill="white" transform="translate(713 456)"/>
    </clipPath>
  </defs>
</svg>
